<svg xmlns="http://www.w3.org/2000/svg" viewBox="0 0 800 560" role="img" aria-label="Traditional Indian mango pickle with spices">
  <defs>
    <linearGradient id="bg" x1="0" x2="1" y1="0" y2="1">
      <stop stop-color="#fff7ed" offset="0"/>
      <stop stop-color="#fed7aa" offset="1"/>
    </linearGradient>
    <linearGradient id="jar" x1="0" x2="0" y1="0" y2="1">
      <stop stop-color="#f59e0b" offset="0"/>
      <stop stop-color="#b45309" offset="1"/>
    </linearGradient>
  </defs>
  <rect width="800" height="560" rx="36" fill="url(#bg)"/>
  <circle cx="640" cy="130" r="92" fill="#fb7185" opacity="0.18"/>
  <circle cx="160" cy="430" r="120" fill="#facc15" opacity="0.18"/>
  <g transform="translate(165 110)">
    <rect x="90" y="60" width="280" height="330" rx="42" fill="#fff7ed" stroke="#d97706" stroke-width="10"/>
    <rect x="120" y="20" width="220" height="90" rx="26" fill="url(#jar)"/>
    <rect x="150" y="90" width="160" height="260" rx="30" fill="#fffaf0"/>
    <path d="M220 130c-55 30-85 78-85 132 0 55 31 105 85 132 54-27 85-77 85-132 0-54-30-102-85-132z" fill="#dc2626" opacity="0.18"/>
    <path d="M185 248c42-18 77-18 116 0" stroke="#b45309" stroke-width="8" fill="none" stroke-linecap="round"/>
    <path d="M220 160c28 38 38 76 38 114 0 40-10 82-38 120" stroke="#7c2d12" stroke-width="10" fill="none" opacity="0.35"/>
    <circle cx="190" cy="188" r="11" fill="#b45309"/>
    <circle cx="258" cy="215" r="11" fill="#b45309"/>
    <circle cx="220" cy="260" r="11" fill="#b45309"/>
    <circle cx="175" cy="310" r="11" fill="#b45309"/>
    <circle cx="268" cy="310" r="11" fill="#b45309"/>
    <path d="M315 148c28 20 46 50 54 90" stroke="#ea580c" stroke-width="8" fill="none" stroke-linecap="round"/>
    <path d="M340 180c26 14 42 36 52 66" stroke="#f59e0b" stroke-width="8" fill="none" stroke-linecap="round"/>
  </g>
  <g transform="translate(420 120)">
    <rect x="0" y="0" width="200" height="200" rx="36" fill="#fff" opacity="0.85"/>
    <path d="M58 88c28-42 69-58 116-50-14 38-22 70-28 105-44 10-73 7-88-55z" fill="#b91c1c" opacity="0.24"/>
    <path d="M80 144c42-18 86-15 124 8" stroke="#b45309" stroke-width="8" fill="none" stroke-linecap="round"/>
    <path d="M76 102c34-22 66-28 96-16" stroke="#f59e0b" stroke-width="8" fill="none" stroke-linecap="round"/>
  </g>
  <text x="110" y="470" fill="#7c2d12" font-family="Segoe UI, Arial, sans-serif" font-size="34" font-weight="800">Aachar Special Pickle</text>
  <text x="110" y="515" fill="#92400e" font-family="Segoe UI, Arial, sans-serif" font-size="20">Traditional mango pickle • premium spice finish</text>
</svg>