<svg xmlns="http://www.w3.org/2000/svg" viewBox="0 0 800 560" role="img" aria-label="Rich Indian curry with red gravy and coriander garnish">
  <defs>
    <linearGradient id="bg" x1="0" x2="1" y1="0" y2="1">
      <stop stop-color="#fff7ed" offset="0"/>
      <stop stop-color="#fee2e2" offset="1"/>
    </linearGradient>
  </defs>
  <rect width="800" height="560" rx="36" fill="url(#bg)"/>
  <circle cx="640" cy="110" r="90" fill="#ef4444" opacity="0.15"/>
  <circle cx="150" cy="420" r="120" fill="#fbbf24" opacity="0.18"/>
  <rect x="130" y="110" width="420" height="320" rx="44" fill="#fffaf0" stroke="#dc2626" stroke-width="8"/>
  <path d="M180 290c76-98 196-126 330-94-16 97-54 165-128 214-90 59-191 49-202-120z" fill="#dc2626" opacity="0.18"/>
  <path d="M220 308c72-74 130-104 208-98 63 5 104 29 138 76" stroke="#a16207" stroke-width="14" fill="none" stroke-linecap="round"/>
  <path d="M248 220c48 40 98 62 158 58" stroke="#b91c1c" stroke-width="10" fill="none" stroke-linecap="round"/>
  <path d="M312 190c44 31 74 76 86 126" stroke="#f59e0b" stroke-width="10" fill="none" stroke-linecap="round" opacity="0.6"/>
  <circle cx="520" cy="180" r="44" fill="#166534" opacity="0.12"/>
  <path d="M520 138c14 22 23 45 28 70" stroke="#166534" stroke-width="8" fill="none" stroke-linecap="round"/>
  <path d="M470 170c29 10 54 11 86 0" stroke="#16a34a" stroke-width="8" fill="none" stroke-linecap="round"/>
  <path d="M530 370c75 0 123-30 148-82" stroke="#b45309" stroke-width="8" fill="none" stroke-linecap="round" opacity="0.65"/>
  <path d="M190 380c50 42 104 62 168 58" stroke="#92400e" stroke-width="8" fill="none" stroke-linecap="round" opacity="0.45"/>
  <text x="110" y="470" fill="#7c2d12" font-family="Segoe UI, Arial, sans-serif" font-size="34" font-weight="800">Spicy Red Chilli Curry</text>
  <text x="110" y="515" fill="#92400e" font-family="Segoe UI, Arial, sans-serif" font-size="20">Rich red gravy • coriander garnish • premium spice finish</text>
</svg>