<svg xmlns="http://www.w3.org/2000/svg" viewBox="0 0 400 300" role="img" aria-label="Biryani illustration">
  <defs>
    <linearGradient id="bg" x1="0" x2="1" y1="0" y2="1">
      <stop offset="0%" stop-color="#fff7ed"/>
      <stop offset="100%" stop-color="#ffe4e6"/>
    </linearGradient>
  </defs>
  <rect width="400" height="300" rx="30" fill="url(#bg)"/>
  <ellipse cx="210" cy="176" rx="126" ry="58" fill="#b91c1c" opacity="0.95"/>
  <path d="M122 184c33-48 98-69 159-56 32 7 59 23 79 45-35 23-73 34-117 35-48 1-91-9-121-24z" fill="#dc2626"/>
  <path d="M118 140c43-18 86-17 130 1" stroke="#fbbf24" stroke-width="8" fill="none" stroke-linecap="round"/>
  <path d="M168 118c18 12 30 30 35 52" stroke="#f59e0b" stroke-width="6" fill="none" stroke-linecap="round"/>
  <circle cx="307" cy="84" r="14" fill="#fbbf24" opacity="0.9"/>
  <circle cx="337" cy="108" r="10" fill="#dc2626" opacity="0.9"/>
  <path d="M104 216c25 10 52 13 77 8" stroke="#7c2d12" stroke-width="6" fill="none" stroke-linecap="round"/>
</svg>