<svg xmlns="http://www.w3.org/2000/svg" viewBox="0 0 400 300" role="img" aria-label="Traditional dal illustration">
  <defs>
    <linearGradient id="bg" x1="0" x2="1" y1="0" y2="1">
      <stop offset="0%" stop-color="#fffaf0"/>
      <stop offset="100%" stop-color="#fef3c7"/>
    </linearGradient>
  </defs>
  <rect width="400" height="300" rx="30" fill="url(#bg)"/>
  <ellipse cx="210" cy="180" rx="120" ry="54" fill="#fbbf24" opacity="0.95"/>
  <path d="M120 175c42-52 120-70 183-48 18 6 33 15 45 29-37 17-74 25-112 28-44 3-90 2-116-9z" fill="#f59e0b" opacity="0.9"/>
  <path d="M164 118c20 18 35 42 42 71" stroke="#b45309" stroke-width="7" fill="none" stroke-linecap="round"/>
  <path d="M118 212c28 11 56 15 85 10" stroke="#92400e" stroke-width="6" fill="none" stroke-linecap="round"/>
  <path d="M257 96c17 6 33 11 47 17" stroke="#dc2626" stroke-width="6" fill="none" stroke-linecap="round"/>
  <circle cx="310" cy="82" r="14" fill="#fbbf24" opacity="0.85"/>
  <circle cx="278" cy="110" r="10" fill="#f59e0b" opacity="0.9"/>
</svg>